<svg width="2046" height="628" viewBox="0 0 2046 628" fill="none" xmlns="http://www.w3.org/2000/svg">
<path d="M563.649 181.262C578.912 173.151 598.02 178.905 604.572 194.9C630.294 257.7 635.072 327.453 617.679 393.631C597.624 469.943 549.56 535.901 483.061 578.37C416.562 620.839 336.506 636.702 258.837 622.801C181.168 608.9 111.584 566.254 63.9436 503.357C16.3028 440.459 -5.89937 361.925 1.75854 283.394C9.41645 204.863 46.3726 132.098 105.267 79.5893C164.162 27.0805 240.673 -1.31879 319.565 0.0470225C387.98 1.23146 453.831 24.7251 507.315 66.4977C520.937 77.1367 521.3 97.0889 509.358 109.584V109.584C497.416 122.08 477.705 122.345 463.823 112.048C421.927 80.9707 371.153 63.5415 318.481 62.6296C255.323 61.5362 194.07 84.2718 146.921 126.309C99.7717 168.346 70.1857 226.6 64.055 289.469C57.9243 352.339 75.6987 415.211 113.839 465.565C151.978 515.918 207.685 550.059 269.865 561.188C332.044 572.317 396.134 559.617 449.372 525.618C502.609 491.619 541.087 438.814 557.143 377.721C570.533 326.772 567.509 273.175 548.943 224.427C542.791 208.275 548.386 189.373 563.649 181.262V181.262Z" fill="#D70F6F"/>
<circle cx="485.17" cy="91.5059" r="67.5601" fill="#D70F6F"/>
<path d="M349.334 191.563H278.93L184.998 422.464H245.275L314.132 244.129L383.025 422.464H443.266L349.334 191.563Z" fill="#D70F6F"/>
<path d="M860.673 420.543C828.381 420.543 801.536 410.136 780.138 389.321C759.129 368.313 748.625 341.759 748.625 309.662C748.625 277.176 759.616 250.429 781.597 229.42C803.579 208.411 830.521 197.906 862.424 197.906C879.542 197.906 896.077 201.311 912.028 208.119C927.396 214.539 940.04 223.195 949.961 234.089L923.408 262.1C906.873 244.982 886.545 236.423 862.424 236.423C841.804 236.423 824.393 243.329 810.193 257.14C796.381 270.951 789.476 288.362 789.476 309.371C789.476 330.185 796.284 347.498 809.901 361.31C823.713 375.315 841.026 382.318 861.84 382.318C886.156 382.318 906.29 374.051 922.241 357.516V324.836H859.797V289.821H959.006V377.066C931.578 406.051 898.8 420.543 860.673 420.543Z" fill="#222222"/>
<path d="M1043.71 421.283C1021.54 421.283 1004.13 415.155 991.484 402.9C978.645 390.45 972.226 373.235 972.226 351.253V259.047H1010.45V351.253C1010.45 361.952 1013.37 370.511 1019.2 376.931C1025.23 383.35 1033.4 386.56 1043.71 386.56C1054.22 386.56 1062.49 383.35 1068.52 376.931C1074.35 370.511 1077.27 361.952 1077.27 351.253V259.047H1115.5V351.253C1115.5 373.235 1109.08 390.45 1096.24 402.9C1083.59 415.155 1066.09 421.283 1043.71 421.283Z" fill="#222222"/>
<path d="M1169.63 417.49H1131.69V195.728H1169.63V417.49Z" fill="#222222"/>
<path d="M1270.5 420.991C1246.18 420.991 1226.05 413.21 1210.1 397.648C1194.54 382.086 1186.75 362.244 1186.75 338.122C1186.75 313.806 1194.63 293.965 1210.39 278.597C1226.34 263.035 1246.77 255.254 1271.67 255.254C1288.01 255.254 1302.69 259.047 1315.73 266.634C1328.95 274.415 1338.78 285.114 1345.2 298.731L1314.27 315.363C1304.15 298.633 1290.15 290.269 1272.25 290.269C1258.63 290.269 1247.25 294.84 1238.11 303.983C1229.16 312.931 1224.69 324.311 1224.69 338.122C1224.69 351.739 1229.06 363.119 1237.82 372.262C1246.57 381.405 1257.66 385.976 1271.08 385.976C1279.84 385.976 1288.1 383.739 1295.88 379.265C1303.86 374.596 1309.79 368.566 1313.68 361.174L1344.61 379.265C1337.61 392.104 1327.59 402.219 1314.56 409.611C1301.33 417.198 1286.64 420.991 1270.5 420.991Z" fill="#222222"/>
<path d="M1357.62 417.49V195.728H1394.67V279.472C1404.98 263.132 1421.71 254.962 1444.86 254.962C1461.79 254.962 1476.28 260.7 1488.34 272.178C1500.4 283.655 1506.43 299.898 1506.43 320.907V417.49H1468.5V331.119C1468.5 318.086 1465.38 307.873 1459.16 300.481C1452.93 293.284 1444.47 289.685 1433.77 289.685C1422.49 289.685 1413.35 293.576 1406.35 301.357C1399.15 309.138 1395.55 319.253 1395.55 331.703V417.49H1357.62Z" fill="#222222"/>
<path d="M1550.12 240.081C1543.12 240.081 1537.28 237.843 1532.62 233.369C1527.95 228.895 1525.61 223.157 1525.61 216.154C1525.61 209.345 1527.95 203.607 1532.62 198.938C1537.48 194.464 1543.31 192.227 1550.12 192.227C1556.93 192.227 1562.67 194.464 1567.34 198.938C1571.81 203.607 1574.05 209.345 1574.05 216.154C1574.05 223.157 1571.81 228.895 1567.34 233.369C1562.67 237.843 1556.93 240.081 1550.12 240.081ZM1568.8 417.49H1530.57V259.047H1568.8V417.49Z" fill="#222222"/>
<path d="M1705.56 408.152C1693.11 416.906 1677.84 421.283 1659.75 421.283C1623.57 421.283 1605.47 400.663 1605.47 359.423V291.144H1579.21V259.047H1606.06V203.023H1643.7V259.047H1696.81V291.144H1643.7V357.964C1643.7 377.028 1651.38 386.56 1666.75 386.56C1675.7 386.56 1684.65 383.836 1693.6 378.39L1705.56 408.152Z" fill="#222222"/>
<path d="M1834.28 259.047H1870.46V417.49H1834.28V397.94C1820.46 413.502 1803.25 421.283 1782.63 421.283C1759.87 421.283 1741.1 413.307 1726.31 397.356C1711.53 381.405 1704.14 361.466 1704.14 337.539C1704.14 313.612 1711.53 293.965 1726.31 278.597C1741.29 263.035 1760.06 255.254 1782.63 255.254C1802.86 255.254 1820.08 263.229 1834.28 279.181V259.047ZM1835.15 338.122C1835.15 324.7 1830.77 313.32 1822.02 303.983C1813.27 294.646 1802.08 289.977 1788.46 289.977C1774.85 289.977 1763.66 294.646 1754.91 303.983C1746.35 313.515 1742.07 324.895 1742.07 338.122C1742.07 351.545 1746.35 363.022 1754.91 372.554C1763.66 381.891 1774.85 386.56 1788.46 386.56C1802.08 386.56 1813.27 381.891 1822.02 372.554C1830.77 363.216 1835.15 351.739 1835.15 338.122Z" fill="#222222"/>
<path d="M2004.05 259.047H2045.48L1981.29 427.702C1973.51 447.35 1964.66 461.745 1954.74 470.887C1944.23 480.225 1931.59 484.893 1916.8 484.893C1904.74 484.893 1895.02 482.365 1887.62 477.307L1893.75 445.21C1901.14 448.711 1907.85 450.462 1913.88 450.462C1926.72 450.462 1937.03 441.903 1944.81 424.784L1948.61 416.031L1879.45 259.047H1923.51L1966.41 366.134L2004.05 259.047Z" fill="#222222"/>
</svg>
